<svg
  width="147"
  height="49"
  viewBox="0 0 147 49"
  fill="none"
  xmlns="http://www.w3.org/2000/svg"
>
  <path
    d="M42.3543 7.22227C42.3518 5.83806 41.6887 5.2555 40.2595 5.21318C39.3703 5.18828 38.924 4.71858 38.9207 3.80408C39.0362 1.37674 38.1822 -0.0522812 35.6151 0.00248958C25.1234 0 14.6291 0 4.13733 0C1.26886 0 0.0104491 1.24977 0.00793727 4.11527C0.000401887 10.8944 0.00793727 17.6735 0.00793727 24.4502H0.000401887C0.000401887 31.2293 -0.00210991 38.0084 0.00542548 44.7875C0.0104491 47.7601 1.26132 48.9924 4.27799 48.9974C14.2071 48.9949 24.1362 49.0099 34.0654 48.9874C36.7781 49.0148 37.2428 47.1427 37.0871 44.8348C37.0293 44.1079 37.1473 43.5129 37.8557 43.0797C39.1995 42.2556 38.893 40.7992 38.883 38.0134C38.8755 36.1412 39.202 34.9188 41.116 34.3637C41.965 34.1172 42.3568 33.4077 42.3593 32.5189C42.3593 24.0867 42.3694 15.6545 42.3543 7.22227V7.22227ZM32.9024 47.2597C23.2119 47.2597 13.5214 47.2622 3.83089 47.2597C1.12569 47.18 1.11815 43.8913 3.79572 43.7693C8.91225 43.717 14.0288 43.7544 19.1453 43.7444V43.7494C24.1237 43.7494 29.1021 43.7718 34.0779 43.7295C34.9972 43.722 35.2861 43.9909 35.2761 44.902C35.2534 47.2547 35.2861 47.2597 32.9024 47.2597V47.2597ZM37.0845 40.1469C37.0845 41.8399 36.9615 41.9594 35.2233 41.9594C27.5146 41.9594 19.8059 41.9594 12.0972 41.9569C11.1461 41.9569 10.6697 41.478 10.668 40.5204C10.5575 30.7513 10.8765 20.9249 10.5525 11.1832C10.3791 10.76 10.0702 10.4687 9.60299 10.511C9.13078 10.5533 8.87457 10.8869 8.84946 11.3624C8.79671 21.1091 8.84946 30.8608 8.82936 40.6075C8.82936 41.9544 8.82434 41.9121 7.44034 41.9693C5.70971 42.0415 3.95146 41.6805 2.25097 42.2681C1.92946 42.3776 1.80136 42.176 1.78378 41.8971C1.71345 35.4591 1.77875 29.0185 1.75866 22.5805V4.19494C1.76117 2.32527 2.36902 1.71034 4.25789 1.71034C14.6115 1.70287 24.9626 1.70536 35.3162 1.70536C36.8384 1.70536 37.082 1.94934 37.082 3.43313V40.1469H37.0845ZM39.7596 7.02808C40.3976 7.02559 40.6136 7.25463 40.6086 7.87205C40.586 10.0728 40.5659 12.2736 40.6186 14.4719C40.6412 15.4453 39.9229 15.5723 39.3 15.7839C38.8554 15.9358 38.9332 15.4827 38.9307 15.2487C38.9156 14.0064 38.9232 12.7641 38.9232 11.5243C38.9232 10.2845 38.9357 9.10937 38.9156 7.90192C38.9056 7.30691 39.1065 7.03306 39.7596 7.02808ZM40.6036 29.4119C40.6036 30.2708 40.5985 31.1272 40.6036 31.9836C40.6061 32.3421 40.5709 32.6882 40.2067 32.8649C39.8475 33.0367 39.4934 33.45 39.094 33.2433C38.78 33.079 38.9282 32.6135 38.9257 32.2824C38.9131 30.7339 38.9182 29.1878 38.9232 27.6393C38.9257 27.3356 38.8478 26.9821 39.1065 26.7605C39.4682 26.4468 39.9103 26.0634 40.3825 26.2277C40.7794 26.3671 40.586 26.8974 40.596 27.2534C40.6186 27.9729 40.6036 28.6924 40.6036 29.4119ZM40.596 18.4279C40.6086 19.9739 40.6036 21.5199 40.6036 23.066C40.6011 23.4842 40.5985 23.9149 40.1364 24.129C39.7998 24.2858 39.4657 24.6618 39.1015 24.4825C38.7599 24.3132 38.9357 23.8576 38.9257 23.5315C38.9056 22.7722 38.9207 22.0153 38.9207 21.256C38.9232 20.3946 38.9156 19.5332 38.9257 18.6718C38.9282 18.4055 38.8704 18.0918 39.1367 17.9125C39.531 17.6461 39.9681 17.2279 40.4227 17.3897C40.7744 17.5142 40.5935 18.0669 40.596 18.4279V18.4279Z"
    fill="#F3F3FD"
  />
  <path
    d="M9.66322 8.68649C9.18849 8.65661 8.87703 8.34044 8.86447 7.88484C8.82931 6.71723 8.82177 5.54713 8.86447 4.37952C8.88206 3.90401 9.17091 3.54302 9.73355 3.54053C10.9241 3.56791 10.5976 5.36041 10.6755 6.14463C10.6026 6.97864 10.9241 8.68649 9.66322 8.68649Z"
    fill="#F3F3FD"
  />
  <path
    d="M7.00068 13.0279C7.02831 14.071 6.08388 14.0536 5.3002 14.0586C4.58685 14.0511 3.62734 14.0934 3.60222 13.1424C3.58966 12.0544 4.65215 12.2586 5.43834 12.2412C6.02108 12.291 6.97556 12.042 7.00068 13.0279Z"
    fill="#F3F3FD"
  />
  <path
    d="M7.02585 26.1755C7.03338 27.1414 6.06634 27.1962 5.30024 27.1539V27.1489C4.56178 27.1862 3.54199 27.1564 3.59725 26.178C3.64999 25.0352 5.15707 25.3838 5.94075 25.339C6.50088 25.3589 7.03087 25.5207 7.02585 26.1755Z"
    fill="#F3F3FD"
  />
  <path
    d="M7.00068 17.479C6.99566 18.4524 6.06881 18.4076 5.33034 18.4126C4.60443 18.4275 3.56706 18.4051 3.5972 17.4292C3.64744 16.4259 4.69988 16.6251 5.47853 16.6002C6.02359 16.65 7.00571 16.4384 7.00068 17.479V17.479Z"
    fill="#F3F3FD"
  />
  <path
    d="M7.00578 21.8709C6.9882 22.8966 6.05884 22.7646 5.33042 22.7696C4.60199 22.7547 3.54955 22.8418 3.60481 21.8011C3.68268 20.8028 4.6874 21.007 5.42586 20.9746C6.0513 21.0219 7.02337 20.7954 7.00578 21.8709V21.8709Z"
    fill="#F3F3FD"
  />
  <path
    d="M7.01078 30.6594C6.96054 31.6478 5.93573 31.4959 5.18219 31.5183C4.5869 31.4436 3.6073 31.6851 3.60981 30.6146C3.61483 29.5864 4.53415 29.691 5.26759 29.6885C6.02615 29.6885 7.04092 29.6437 7.01078 30.6594V30.6594Z"
    fill="#F3F3FD"
  />
  <path
    d="M7.00073 35.0009C6.99822 36.1038 5.96336 35.815 5.2475 35.8673C4.54168 35.8822 3.57966 35.9146 3.59222 34.966C3.61483 33.9503 4.58689 34.0872 5.37309 34.0773C5.97843 34.1395 7.00324 33.9329 7.00073 35.0009Z"
    fill="#F3F3FD"
  />
  <path
    d="M7.01077 39.3851C6.96053 40.3037 5.98847 40.2639 5.2927 40.2465V40.2415C4.60698 40.2788 3.60226 40.2714 3.59473 39.3652C3.59724 38.2 5.20479 38.4341 5.99851 38.4639C6.53604 38.5212 7.05598 38.7029 7.01077 39.3851V39.3851Z"
    fill="#F3F3FD"
  />
  <path
    d="M7.02077 4.38423C7.01574 5.01907 6.51087 5.23317 5.92311 5.2282C5.43582 5.22571 4.95105 5.21575 4.46627 5.19832C3.93879 5.18338 3.59217 4.94438 3.58965 4.38921C3.56705 3.36599 4.61447 3.49545 5.35042 3.50043V3.49296C6.08135 3.47553 7.03333 3.41827 7.02077 4.38423V4.38423Z"
    fill="#F3F3FD"
  />
  <path
    d="M6.99821 8.76819C6.96556 9.79888 5.9734 9.54992 5.2274 9.59722C4.6095 9.49764 3.61734 9.84867 3.61483 8.72587C3.6098 7.60307 4.59694 7.87443 5.2701 7.85949C5.9935 7.84456 7.03589 7.63543 6.99821 8.76819V8.76819Z"
    fill="#F3F3FD"
  />
  <path
    d="M30.3152 17.5093L29.5767 15.8936L27.9466 15.1616L29.5767 14.4297L30.3152 12.814L31.0537 14.4297L32.6838 15.1616L31.0537 15.8936L30.3152 17.5093V17.5093ZM19.836 17.5093L19.0975 15.8936L17.4674 15.1616L19.0975 14.4297L19.836 12.814L20.5745 14.4297L22.2046 15.1616L20.5745 15.8936L19.836 17.5093ZM30.3152 27.8958L29.5767 26.2801L27.9466 25.5482L29.5767 24.8162L30.3152 23.2005L31.0537 24.8162L32.6838 25.5482L31.0537 26.2801L30.3152 27.8958V27.8958ZM16.7264 30.6767L14.6617 28.6303C14.5034 28.4734 14.4155 28.2892 14.4005 28.0801C14.3854 27.8709 14.4733 27.6743 14.6617 27.4875L24.4451 17.7906C24.6184 17.6189 24.8294 17.5317 25.0756 17.5317C25.3217 17.5317 25.5327 17.6189 25.706 17.7906L27.6627 19.73C27.836 19.9018 27.924 20.1109 27.924 20.3549C27.924 20.5989 27.836 20.808 27.6627 20.9798L17.8793 30.6767C17.706 30.8485 17.5126 30.9356 17.3041 30.9356C17.0956 30.9356 16.9022 30.8485 16.7289 30.6767H16.7264ZM17.2262 29.4493L24.0307 22.7051L22.6818 21.3682L15.8774 28.1124L17.2262 29.4493Z"
    fill="#F3F3FD"
  />
  <path
    d="M69.1827 18.7087C68.6878 16.8265 67.334 15.7386 65.4451 15.3652C63.1694 14.917 60.8586 15.2631 58.5653 15.1436C57.7691 15.1013 57.5455 15.41 57.5556 16.1618C57.5907 18.7186 57.5706 21.2754 57.5681 23.8322C57.5681 26.043 57.5505 28.2537 57.5731 30.4645C57.5983 32.9018 57.2064 32.5159 59.7509 32.5906C60.522 32.613 60.7933 32.3789 60.7707 31.5947C60.7229 29.7997 60.7782 28.0023 60.7455 26.2073C60.733 25.5401 60.954 25.2712 61.6448 25.3085C62.4435 25.3509 63.2473 25.3459 64.0485 25.306C65.5406 25.2314 66.9497 24.8654 68.0523 23.7974C69.5368 22.3609 69.6725 20.5609 69.1827 18.7087V18.7087ZM64.2821 22.5899C63.9104 22.6571 63.5261 22.6795 63.1443 22.687C61.5518 22.7136 60.7556 21.8887 60.7556 20.2124C60.8862 19.5775 60.3562 18.4273 60.9892 18.1012C61.9688 17.5933 63.2322 17.795 64.3575 18.024C65.5581 18.2705 66.1861 19.1294 66.1786 20.3294C66.171 21.4821 65.4275 22.3858 64.2821 22.5899Z"
    fill="#F3F3FD"
  />
  <path
    d="M99.8718 24.953C99.8316 23.6111 99.5729 22.3091 98.641 21.1987C96.6391 18.8062 91.505 19.0677 89.2344 21.0045C89.0812 21.134 88.8124 21.3406 88.9304 21.4925C89.3575 22.0327 89.8071 22.573 90.3345 23.0111C90.8017 23.402 91.0504 22.7721 91.3619 22.5954C92.6906 21.8311 94.052 21.6942 95.446 22.3016C96.2599 22.6576 96.6768 23.4941 96.5638 24.2485C96.4508 25.0053 95.5641 24.6194 95.0366 24.6244C93.4818 24.6418 91.9823 24.8758 90.5807 25.553C88.8626 26.3845 87.9157 28.1422 88.1945 29.8724C88.4281 31.3214 89.5961 32.2948 91.5452 32.6632C93.3613 33.0043 94.9914 32.6608 96.5789 31.1172C96.3252 32.5114 96.9506 32.6906 97.8574 32.5836C98.2341 32.5413 98.626 32.5462 99.0053 32.5836C99.6935 32.6458 99.912 32.357 99.902 31.6873C99.8718 29.4442 99.9396 27.1961 99.8718 24.953V24.953ZM96.6165 27.3978C96.4457 29.2027 95.2325 30.2957 93.3412 30.3006C92.462 30.2882 91.6507 30.1289 91.387 29.1355C91.1609 28.2816 91.6959 27.5297 92.776 27.1314C93.8762 26.7281 95.0241 26.7455 96.172 26.7804C96.5939 26.7928 96.6542 27.0069 96.6165 27.3978V27.3978Z"
    fill="#F3F3FD"
  />
  <path
    d="M115.407 31.8068C115.412 32.3894 115.166 32.591 114.593 32.5811C111.685 32.5387 112.298 32.8997 112.247 30.445C112.212 28.6849 112.24 26.9222 112.24 25.1596C112.24 25.0227 112.232 24.8833 112.227 24.7464C112.157 22.914 111.489 21.9282 110.303 21.8958C108.806 21.8535 107.417 23.1754 107.375 24.8186C107.317 27.0492 107.314 29.2849 107.382 31.5155C107.41 32.3719 107.181 32.6159 106.32 32.596C104.177 32.5487 104.157 32.5885 104.159 30.4699C104.159 27.216 104.217 23.9596 104.182 20.7058C104.172 19.8991 104.448 19.6402 105.194 19.7149C105.368 19.7323 105.543 19.7174 105.717 19.7174C106.752 19.7157 107.33 20.2751 107.452 21.3954C108.492 20.2552 109.575 19.5058 111.049 19.4784C113.516 19.4336 115.241 21.1265 115.354 23.9397C115.457 26.5588 115.385 29.1853 115.407 31.8068V31.8068Z"
    fill="#F3F3FD"
  />
  <path
    d="M84.0124 31.5228C84.0325 32.3219 83.7989 32.6082 82.9574 32.5958C80.1367 32.5485 77.3134 32.5335 74.4952 32.5983C73.3875 32.6232 73.4804 32.0008 73.4628 31.2813C73.4452 30.5444 73.5005 30.0614 74.4927 30.0664C77.0823 30.0763 77.0823 30.0315 77.0823 27.4697C77.0823 24.1213 77.0547 20.7728 77.0999 17.4243C77.11 16.5903 76.8236 16.299 76.0198 16.3911C75.7109 16.4285 75.3944 16.4011 75.0804 16.3961C73.3247 16.3787 73.6587 16.5305 73.5658 14.9098C73.5206 14.1231 73.7542 13.8517 74.5856 13.8891C76.1856 13.9588 77.7907 13.9339 79.3907 13.899C80.1266 13.8816 80.3376 14.153 80.3251 14.8675C80.2849 17.2401 80.31 19.6126 80.31 21.9827C80.31 24.3528 80.3301 26.6556 80.2999 28.9909C80.2899 29.7601 80.4356 30.2381 81.3624 30.0987C81.7719 30.0365 82.1989 30.0888 82.6158 30.0888C84.0224 30.0913 83.9797 30.0938 84.0124 31.5228V31.5228Z"
    fill="#F3F3FD"
  />
  <path
    d="M130.114 31.3112C130.114 32.2996 129.84 32.6282 128.818 32.6008C126.273 32.5311 123.724 32.5361 121.179 32.5983C120.202 32.6207 120.092 32.1527 120.137 31.3959C120.18 30.7187 119.989 30.0266 121.127 30.0191C123.543 30.0042 123.543 29.9519 123.543 27.537C123.543 24.6665 123.498 21.796 123.566 18.928C123.591 17.8949 123.234 17.5463 122.254 17.6882C122.084 17.7131 121.905 17.6907 121.732 17.6907C120.285 17.6882 120.33 17.6857 120.265 16.2418C120.227 15.4053 120.466 15.0891 121.348 15.1364C122.599 15.2061 123.857 15.1538 125.113 15.1538C126.474 15.1563 127.833 15.1787 129.195 15.1464C129.835 15.1289 130.028 15.3704 130.041 15.9903C130.081 17.6907 130.109 17.6808 128.363 17.6932C126.286 17.7081 126.532 17.4542 126.524 19.5206C126.512 22.63 126.56 25.7445 126.499 28.854C126.479 29.8399 126.823 30.161 127.755 30.0465C128.099 30.0042 128.459 30.0789 128.8 30.0316C129.812 29.8996 130.111 30.3179 130.114 31.3112V31.3112Z"
    fill="#F3F3FD"
  />
  <path
    d="M145.792 31.7418C144.461 32.4961 143.035 32.9019 141.5 32.7675C139.161 32.5658 137.963 31.0547 137.785 28.0896C137.732 27.1958 137.777 26.2971 137.777 25.4008H137.84C137.84 24.5743 137.772 23.7428 137.863 22.9262C137.928 22.3312 137.732 22.1743 137.205 22.2067C137.031 22.2167 136.856 22.2067 136.682 22.2067C135.188 22.1992 135.233 22.1992 135.223 20.7329C135.218 19.8989 135.542 19.615 136.331 19.7121C136.572 19.742 136.82 19.6997 137.061 19.7196C137.692 19.7744 137.956 19.5926 138.008 18.8756C138.192 16.3288 137.589 16.7421 140.493 16.3388C141.399 16.2118 141.573 16.3313 141.387 17.2923C140.92 19.7047 140.987 19.7171 143.487 19.7171H143.801C145.35 19.7196 145.679 20.1777 145.323 21.7237C145.21 22.2092 144.893 22.1992 144.547 22.2017C143.64 22.2092 142.736 22.2067 141.829 22.2092C141.462 22.2092 141.166 22.2266 141.118 22.7295C140.94 24.517 140.776 26.3095 140.997 28.0946C141.256 30.1933 142.605 30.8281 144.486 29.8447C144.891 29.6356 145.308 29.0057 145.697 29.312C146.164 29.6804 146.164 30.4323 146.297 31.0323C146.375 31.3883 146.069 31.5849 145.792 31.7418V31.7418Z"
    fill="#F3F3FD"
  />
</svg>
