<?xml version="1.0" encoding="UTF-8"?><svg id="a" xmlns="http://www.w3.org/2000/svg" viewBox="0 0 1000 991.07"><path d="M870.46,256.78l-40.39-88.36-89.15-40.03,89.15-40.03L870.46,0l40.39,88.36,89.15,40.03-89.15,40.03-40.39,88.36Zm-573.1,0l-40.39-88.36-89.15-40.03,89.15-40.03L297.36,0l40.39,88.36,89.15,40.03-89.15,40.03-40.39,88.36ZM870.46,824.82l-40.39-88.36-89.15-40.03,89.15-40.03,40.39-88.36,40.39,88.36,89.15,40.03-89.15,40.03-40.39,88.36ZM127.29,976.91L14.38,864.99c-8.66-8.58-13.46-18.65-14.28-30.09-.83-11.44,3.98-22.19,14.28-32.41L549.43,272.17c9.48-9.39,21.02-14.16,34.48-14.16s25,4.77,34.48,14.16l107.01,106.07c9.48,9.4,14.29,20.83,14.29,34.18s-4.81,24.78-14.29,34.18L190.35,976.91c-9.48,9.4-20.05,14.16-31.46,14.16s-21.98-4.76-31.46-14.16h-.14Zm27.33-67.13l372.14-368.84-73.77-73.11L80.86,836.67l73.77,73.11Z" style="fill:#8338ec;"/></svg>